<svg width="230" height="61" viewBox="0 0 230 61" fill="none" xmlns="http://www.w3.org/2000/svg">
<path d="M34.1515 16.4781C34.2292 16.5199 34.3078 16.5618 34.388 16.6053C37.0348 18.1165 38.984 20.7462 39.7942 23.6653C39.813 23.7345 39.8318 23.8028 39.8506 23.8736C39.8676 23.9368 39.8847 24 39.9018 24.0649C40.1417 25.0066 40.245 25.9398 40.2399 26.9105C40.2399 27.0096 40.2399 27.1095 40.239 27.2111C40.2296 28.0264 40.175 28.8384 39.9573 29.6264C39.7686 29.7212 39.6337 29.7357 39.4245 29.7579C37.6162 29.9637 35.8625 30.3291 34.1251 30.8696C33.968 30.9182 33.968 30.9182 33.8075 30.9677C33.3823 31.1018 32.9673 31.235 32.5643 31.4254C32.2638 31.5645 32.0119 31.6644 31.6755 31.6755C31.2222 31.5014 30.8551 31.1744 30.4819 30.8713C26.5742 27.8181 20.9417 26.9464 16.1366 26.7236C16.222 23.4228 17.4634 20.5575 19.784 18.207C23.6773 14.5477 29.5069 13.9594 34.1515 16.4781Z" fill="#EF652A"/>
<path d="M26.9797 31.7608C23.1832 31.8383 13.6447 31.576 13.7221 37.3292C13.9903 39.9983 20.5233 41.6031 19.3272 43.8957C12.6387 51.9912 -0.981882 43.8957 0.878589 35.5448C3.92741 27.5774 26.9797 26.5085 26.9797 31.7608Z" fill="#FFD800"/>
<path d="M28.6873 32.6147C27.0857 34.2162 17.5613 33.5219 19.258 37.4489C20.1742 38.8303 22.3453 39.1735 23.8471 39.486C24.4388 39.6055 25.0314 39.7174 25.6239 39.8301C30.0645 40.673 40.4206 43.7975 35.1035 49.9586C31.673 53.641 25.3242 54.7355 20.5481 54.9088C19.9722 54.9257 15.112 55.4369 15.112 53.874C19.1886 53.2512 32.7969 52.2451 31.8121 45.7076C31.5492 44.7274 30.9541 44.0504 30.2241 43.3725C30.48 44.4412 30.6639 45.345 30.1199 46.394C28.7103 48.9511 24.8196 50.2856 22.1874 51.0651C19.8634 51.7345 17.4557 52.3586 15.0267 52.4226C13.7147 52.4778 12.5493 52.3645 11.6115 51.3981C13.4508 51.2587 15.2743 50.9319 17.0758 50.5443C19.5586 50.0102 31.1892 46.5107 26.6518 42.552C24.9733 41.2617 22.7977 40.8342 20.8119 40.2245C19.2355 39.7403 17.0581 39.0528 16.4781 37.3106C16.4158 36.6984 16.5917 36.1742 16.9494 35.6798C19.5039 32.8862 25.1645 32.5421 28.6873 32.6147Z" fill="#FFD800"/>
<path d="M50.1174 34.2369C51.8046 34.9949 53.4308 35.9777 54.7278 37.3105C53.8578 40.1135 52.601 42.6706 50.8004 44.9946C42.3479 38.4205 38.5896 37.2917 27.9189 37.1398C30.6365 34.4034 34.6288 33.1722 38.3351 32.5293C42.3198 31.8477 46.4567 32.5738 50.1174 34.2369Z" fill="#FFD800"/>
<path d="M24.7598 34.4077C23.9002 34.8875 22.4518 35.731 23.0096 36.8939C24.1579 38.2147 27.404 38.1319 28.9989 38.2924C34.0743 38.8074 44.6341 40.0409 45.01 46.9908C45.1571 54.9164 26.8376 61.6722 21.3447 56.1793C26.8495 55.6378 39.7593 54.48 39.1889 46.4461C38.9242 44.9118 37.7801 43.7217 36.5481 42.8508C33.3583 40.7018 29.5248 40.0111 25.8211 39.2845C24.5214 39.0294 20.0556 38.8473 20.4055 36.4568C20.9618 35.4262 23.5 33.9867 24.7598 34.4077Z" fill="#FFD800"/>
<path d="M20.2348 41.0672C20.7692 41.168 21.2499 41.3174 21.7451 41.5419C21.8109 41.5718 21.8775 41.6017 21.9449 41.6324C22.966 42.1054 24.1818 42.7202 24.6181 43.8233C24.7863 44.5148 24.7889 45.2952 24.444 45.9304C24.3893 46.0166 24.3893 46.0166 24.333 46.1046C24.2945 46.1669 24.2561 46.2301 24.216 46.295C23.8036 46.8918 23.2358 47.27 22.6254 47.6414C22.5767 47.6713 22.5272 47.7012 22.4777 47.7319C21.6469 48.228 20.7735 48.5567 19.8548 48.8521C19.7131 48.8973 19.5722 48.9434 19.4314 48.9904C17.0271 49.7929 14.4495 50.1345 11.9206 50.1439C11.8224 50.1447 11.7234 50.1447 11.6218 50.1456C9.63158 50.1285 9.63158 50.1285 9.00234 49.5155C8.92549 49.4326 8.92549 49.4326 8.84695 49.349C8.76413 49.267 8.76413 49.267 8.67875 49.1825C8.28174 48.7846 8.28174 48.7846 8.28174 48.5806C8.3415 48.5865 8.40127 48.5925 8.46274 48.5985C9.46253 48.6839 10.4623 48.6847 11.4655 48.6864C11.7737 48.6873 12.0811 48.6899 12.3893 48.6924C14.0551 48.7001 15.6875 48.5891 17.2943 48.1272C17.3874 48.1007 17.4805 48.0751 17.5761 48.0487C19.1129 47.6072 20.8384 46.8824 21.7716 45.5069C22.1182 44.8341 22.2446 44.1468 22.0568 43.4066C21.7409 42.5212 21.1125 41.9253 20.4192 41.3208C20.3586 41.2653 20.2971 41.2098 20.2348 41.1526C20.2348 41.1244 20.2348 41.0963 20.2348 41.0672Z" fill="#FFD800"/>
<circle cx="44.7811" cy="27.7908" r="1.83564" fill="#FFD800"/>
<circle cx="43.7567" cy="21.5581" r="1.83564" fill="#FFD800"/>
<circle cx="40.3415" cy="16.0939" r="1.83564" fill="#FFD800"/>
<circle cx="35.048" cy="12.1665" r="1.83564" fill="#FFD800"/>
<circle cx="28.5592" cy="10.715" r="1.83564" fill="#FFD800"/>
<circle cx="21.9851" cy="11.9957" r="1.83564" fill="#FFD800"/>
<circle cx="16.2646" cy="15.5816" r="1.83564" fill="#FFD800"/>
<circle cx="12.7642" cy="20.7897" r="1.83564" fill="#FFD800"/>
<circle cx="11.7396" cy="26.254" r="1.83564" fill="#FFD800"/>
<ellipse cx="50.4191" cy="19.1839" rx="3.79936" ry="1.79035" transform="rotate(-20.0404 50.4191 19.1839)" fill="#FFD800"/>
<ellipse cx="45.512" cy="11.4762" rx="3.79936" ry="1.79035" transform="rotate(-42.1666 45.512 11.4762)" fill="#FFD800"/>
<ellipse cx="37.8879" cy="5.9915" rx="3.79936" ry="1.79035" transform="rotate(-64.956 37.8879 5.9915)" fill="#FFD800"/>
<ellipse cx="28.6258" cy="3.81176" rx="3.79936" ry="1.79035" transform="rotate(-89.5998 28.6258 3.81176)" fill="#FFD800"/>
<ellipse cx="19.2548" cy="5.65114" rx="3.79936" ry="1.79035" transform="rotate(-114.476 19.2548 5.65114)" fill="#FFD800"/>
<ellipse cx="11.3284" cy="10.6618" rx="3.79936" ry="1.79035" transform="rotate(-136.392 11.3284 10.6618)" fill="#FFD800"/>
<ellipse cx="6.24516" cy="17.9751" rx="3.79936" ry="1.79035" transform="rotate(-156.087 6.24516 17.9751)" fill="#FFD800"/>
<ellipse cx="3.81873" cy="26.5063" rx="3.79936" ry="1.79035" transform="rotate(-179.373 3.81873 26.5063)" fill="#FFD800"/>
<ellipse cx="52.1622" cy="27.9993" rx="3.79936" ry="1.79035" transform="rotate(1.25957 52.1622 27.9993)" fill="#FFD800"/>
<path d="M68.1897 15.12H79.5097V17.64H71.0297V27.72H79.0697V30.28H71.0297V42H68.1897V15.12ZM83.0334 15.12H85.8734V42H83.0334V15.12ZM98.1928 31.2H94.2328V42H91.3928V15.12H97.9128C100.046 15.12 101.659 15.6667 102.753 16.76C103.846 17.8267 104.393 19.2933 104.393 21.16V25.12C104.393 28 103.246 29.8667 100.953 30.72L105.233 42H102.113L98.1928 31.2ZM94.2328 28.72H97.7928C100.299 28.72 101.553 27.5067 101.553 25.08V21.28C101.553 18.8533 100.299 17.64 97.7928 17.64H94.2328V28.72ZM120.914 42L119.274 34.48H112.074L110.434 42H107.594L113.674 15.12H117.674L123.754 42H120.914ZM112.594 32H118.714L115.634 17.88L112.594 32ZM138.093 15.12V17.64H132.893V42H130.013V17.64H124.813V15.12H138.093ZM147.136 20.56C147.136 18.8 147.722 17.4267 148.896 16.44C150.069 15.4267 151.709 14.92 153.816 14.92C155.949 14.92 157.749 15.1467 159.216 15.6V18.32C157.829 17.8133 156.136 17.56 154.136 17.56C151.389 17.56 150.016 18.6 150.016 20.68V22.6C150.016 23.5333 150.189 24.2667 150.536 24.8C150.909 25.3333 151.522 25.84 152.376 26.32L157.016 28.92C159.176 30.0933 160.256 31.8667 160.256 34.24V36.4C160.256 38.24 159.629 39.6667 158.376 40.68C157.122 41.6933 155.309 42.2 152.936 42.2C150.589 42.2 148.722 41.9333 147.336 41.4V38.68C148.909 39.2667 150.696 39.56 152.696 39.56C155.842 39.56 157.416 38.4533 157.416 36.24V34.56C157.416 33.68 157.256 32.9867 156.936 32.48C156.616 31.9733 156.042 31.4933 155.216 31.04L150.616 28.52C148.296 27.2667 147.136 25.4 147.136 22.92V20.56ZM174.603 21.12C174.603 18.5867 173.283 17.32 170.643 17.32C168.03 17.32 166.723 18.5867 166.723 21.12V36C166.723 38.56 168.03 39.84 170.643 39.84C173.283 39.84 174.603 38.56 174.603 36V21.12ZM163.883 21.08C163.883 19.1867 164.457 17.6533 165.603 16.48C166.75 15.3067 168.43 14.72 170.643 14.72C172.883 14.72 174.577 15.3067 175.723 16.48C176.87 17.6533 177.443 19.1867 177.443 21.08V36.08C177.443 37.9733 176.87 39.5067 175.723 40.68C174.577 41.8267 172.883 42.4 170.643 42.4C168.403 42.4 166.71 41.8267 165.563 40.68C164.443 39.5067 163.883 37.9733 163.883 36.08V21.08ZM182.565 15.12H185.405V39.52H193.565V42H182.565V15.12ZM207.75 42L206.11 34.48H198.91L197.27 42H194.43L200.51 15.12H204.51L210.59 42H207.75ZM199.43 32H205.55L202.47 17.88L199.43 32ZM220.849 31.2H216.889V42H214.049V15.12H220.569C222.702 15.12 224.316 15.6667 225.409 16.76C226.502 17.8267 227.049 19.2933 227.049 21.16V25.12C227.049 28 225.902 29.8667 223.609 30.72L227.889 42H224.769L220.849 31.2ZM216.889 28.72H220.449C222.956 28.72 224.209 27.5067 224.209 25.08V21.28C224.209 18.8533 222.956 17.64 220.449 17.64H216.889V28.72Z" fill="white"/>
</svg>
